<svg class="poloto" width="800" height="500" viewBox="0 0 800 500" xmlns="http://www.w3.org/2000/svg"><style>.poloto{stroke-linecap:round;stroke-linejoin:round;font-family:Roboto,sans-serif;font-size:16px;}.poloto_background{fill:AliceBlue;}.poloto_scatter{stroke-width:7}.poloto_tick_line{stroke:gray;stroke-width:0.5}.poloto_line{stroke-width:2}.poloto_text{fill: black;}.poloto_axis_lines{stroke: black;stroke-width:3;fill:none;stroke-dasharray:none}.poloto_title{font-size:24px;dominant-baseline:start;text-anchor:middle;}.poloto_xname{font-size:24px;dominant-baseline:start;text-anchor:middle;}.poloto_yname{font-size:24px;dominant-baseline:start;text-anchor:middle;}.poloto_legend_text{font-size:20px;dominant-baseline:middle;text-anchor:start;}.poloto0stroke{stroke:blue;}.poloto1stroke{stroke:red;}.poloto2stroke{stroke:green;}.poloto3stroke{stroke:gold;}.poloto4stroke{stroke:aqua;}.poloto5stroke{stroke:lime;}.poloto6stroke{stroke:orange;}.poloto7stroke{stroke:chocolate;}.poloto0fill{fill:blue;}.poloto1fill{fill:red;}.poloto2fill{fill:green;}.poloto3fill{fill:gold;}.poloto4fill{fill:aqua;}.poloto5fill{fill:lime;}.poloto6fill{fill:orange;}.poloto7fill{fill:chocolate;}</style><circle  r="1e5" class="poloto_background" /><text  class="poloto_text poloto_legend_text" x="675" y="100" >pmf</text><rect  class="poloto_histo poloto_legend_icon poloto0fill poloto0legend" x="680" y="76.25" width="50" height="7.5" rx="5" ry="5" /><g  class="poloto_histo poloto0fill" ><rect  x="150.00" y="400.00" width="3" height="0" /><rect  x="151.96" y="400.00" width="3" height="0" /><rect  x="153.92" y="400.00" width="3" height="0" /><rect  x="155.88" y="400.00" width="3" height="0" /><rect  x="157.84" y="400.00" width="3" height="0" /><rect  x="159.80" y="400.00" width="3" height="0" /><rect  x="161.76" y="400.00" width="3" height="0" /><rect  x="163.73" y="400.00" width="3" height="0" /><rect  x="165.69" y="400.00" width="3" height="0" /><rect  x="167.65" y="400.00" width="3" height="0" /><rect  x="169.61" y="400.00" width="3" height="0" /><rect  x="171.57" y="400.00" width="3" height="0" /><rect  x="173.53" y="400.00" width="3" height="0" /><rect  x="175.49" y="400.00" width="3" height="0" /><rect  x="177.45" y="400.00" width="3" height="0" /><rect  x="179.41" y="400.00" width="3" height="0" /><rect  x="181.37" y="399.90" width="3" height="0.09551098376311984" /><rect  x="183.33" y="399.71" width="3" height="0.28653295128941636" /><rect  x="185.29" y="397.90" width="3" height="2.1012416427889207" /><rect  x="187.25" y="389.97" width="3" height="10.028653295128947" /><rect  x="189.22" y="377.79" width="3" height="22.206303724928375" /><rect  x="191.18" y="366.05" width="3" height="33.95415472779371" /><rect  x="193.14" y="356.26" width="3" height="43.7440305635148" /><rect  x="195.10" y="358.69" width="3" height="41.3085004775549" /><rect  x="197.06" y="356.64" width="3" height="43.36198662846226" /><rect  x="199.02" y="343.22" width="3" height="56.78127984718242" /><rect  x="200.98" y="332.47" width="3" height="67.52626552053482" /><rect  x="202.94" y="324.98" width="3" height="75.02387774594075" /><rect  x="204.90" y="307.40" width="3" height="92.59789875835725" /><rect  x="206.86" y="277.98" width="3" height="122.01528175740214" /><rect  x="208.82" y="266.91" width="3" height="133.09455587392551" /><rect  x="210.78" y="284.77" width="3" height="115.23400191021966" /><rect  x="212.75" y="290.21" width="3" height="109.78987583572109" /><rect  x="214.71" y="300.76" width="3" height="99.23591212989493" /><rect  x="216.67" y="297.80" width="3" height="102.19675262655204" /><rect  x="218.63" y="302.77" width="3" height="97.23018147086913" /><rect  x="220.59" y="289.11" width="3" height="110.88825214899714" /><rect  x="222.55" y="292.55" width="3" height="107.44985673352437" /><rect  x="224.51" y="295.27" width="3" height="104.72779369627506" /><rect  x="226.47" y="293.60" width="3" height="106.39923591212988" /><rect  x="228.43" y="291.17" width="3" height="108.83476599808978" /><rect  x="230.39" y="289.59" width="3" height="110.41069723018148" /><rect  x="232.35" y="294.36" width="3" height="105.63514804202481" /><rect  x="234.31" y="290.07" width="3" height="109.93314231136583" /><rect  x="236.27" y="295.03" width="3" height="104.96657115568291" /><rect  x="238.24" y="296.80" width="3" height="103.19961795606491" /><rect  x="240.20" y="306.54" width="3" height="93.45749761222538" /><rect  x="242.16" y="311.27" width="3" height="88.72970391595032" /><rect  x="244.12" y="310.46" width="3" height="89.54154727793696" /><rect  x="246.08" y="316.95" width="3" height="83.04680038204395" /><rect  x="248.04" y="320.44" width="3" height="79.56064947468957" /><rect  x="250.00" y="325.31" width="3" height="74.68958930276983" /><rect  x="251.96" y="329.37" width="3" height="70.63037249283667" /><rect  x="253.92" y="331.42" width="3" height="68.57688634192931" /><rect  x="255.88" y="330.09" width="3" height="69.91404011461316" /><rect  x="257.84" y="329.61" width="3" height="70.39159503342887" /><rect  x="259.80" y="330.80" width="3" height="69.1977077363897" /><rect  x="261.76" y="329.61" width="3" height="70.39159503342887" /><rect  x="263.73" y="330.85" width="3" height="69.14995224450809" /><rect  x="265.69" y="326.55" width="3" height="73.4479465138491" /><rect  x="267.65" y="320.06" width="3" height="79.9426934097421" /><rect  x="269.61" y="321.39" width="3" height="78.60553963705826" /><rect  x="271.57" y="315.52" width="3" height="84.47946513849092" /><rect  x="273.53" y="299.24" width="3" height="100.76408787010507" /><rect  x="275.49" y="291.17" width="3" height="108.83476599808978" /><rect  x="277.45" y="281.85" width="3" height="118.14708691499521" /><rect  x="279.41" y="272.83" width="3" height="127.17287488061129" /><rect  x="281.37" y="260.41" width="3" height="139.58930276981852" /><rect  x="283.33" y="238.49" width="3" height="161.5090735434575" /><rect  x="285.29" y="229.04" width="3" height="170.96466093600765" /><rect  x="287.25" y="214.42" width="3" height="185.57784145176694" /><rect  x="289.22" y="204.01" width="3" height="195.98853868194843" /><rect  x="291.18" y="193.89" width="3" height="206.1127029608405" /><rect  x="293.14" y="182.66" width="3" height="217.33524355300858" /><rect  x="295.10" y="154.01" width="3" height="245.9885386819484" /><rect  x="297.06" y="153.06" width="3" height="246.94364851957974" /><rect  x="299.02" y="134.57" width="3" height="265.4250238777459" /><rect  x="300.98" y="125.02" width="3" height="274.9761222540592" /><rect  x="302.94" y="108.36" width="3" height="291.6427889207259" /><rect  x="304.90" y="106.64" width="3" height="293.36198662846226" /><rect  x="306.86" y="101.00" width="3" height="298.99713467048707" /><rect  x="308.82" y="102.44" width="3" height="297.56446991404005" /><rect  x="310.78" y="100.00" width="3" height="300" /><rect  x="312.75" y="110.60" width="3" height="289.3982808022922" /><rect  x="314.71" y="110.79" width="3" height="289.207258834766" /><rect  x="316.67" y="126.22" width="3" height="273.7822349570201" /><rect  x="318.63" y="132.00" width="3" height="268.0038204393505" /><rect  x="320.59" y="144.70" width="3" height="255.30085959885386" /><rect  x="322.55" y="155.83" width="3" height="244.1738299904489" /><rect  x="324.51" y="157.78" width="3" height="242.21585482330465" /><rect  x="326.47" y="170.06" width="3" height="229.9426934097421" /><rect  x="328.43" y="189.35" width="3" height="210.64947468958928" /><rect  x="330.39" y="195.32" width="3" height="204.6800382043935" /><rect  x="332.35" y="204.39" width="3" height="195.6064947468959" /><rect  x="334.31" y="218.19" width="3" height="181.8051575931232" /><rect  x="336.27" y="229.08" width="3" height="170.91690544412606" /><rect  x="338.24" y="237.97" width="3" height="162.0343839541547" /><rect  x="340.20" y="241.79" width="3" height="158.21394460362941" /><rect  x="342.16" y="256.54" width="3" height="143.45749761222538" /><rect  x="344.12" y="268.86" width="3" height="131.13658070678127" /><rect  x="346.08" y="280.23" width="3" height="119.77077363896848" /><rect  x="348.04" y="289.54" width="3" height="110.45845272206304" /><rect  x="350.00" y="300.91" width="3" height="99.09264565425025" /><rect  x="351.96" y="315.66" width="3" height="84.33619866284619" /><rect  x="353.92" y="317.53" width="3" height="82.47373447946512" /><rect  x="355.88" y="328.41" width="3" height="71.58548233046798" /><rect  x="357.84" y="328.94" width="3" height="71.06017191977077" /><rect  x="359.80" y="331.85" width="3" height="68.14708691499521" /><rect  x="361.76" y="333.38" width="3" height="66.61891117478513" /><rect  x="363.73" y="337.63" width="3" height="62.36867239732567" /><rect  x="365.69" y="340.21" width="3" height="59.78987583572109" /><rect  x="367.65" y="345.32" width="3" height="54.6800382043935" /><rect  x="369.61" y="345.46" width="3" height="54.53677172874882" /><rect  x="371.57" y="347.28" width="3" height="52.72206303724931" /><rect  x="373.53" y="348.62" width="3" height="51.38490926456541" /><rect  x="375.49" y="352.39" width="3" height="47.61222540592166" /><rect  x="377.45" y="350.91" width="3" height="49.09264565425025" /><rect  x="379.41" y="351.77" width="3" height="48.233046800382056" /><rect  x="381.37" y="354.35" width="3" height="45.65425023877748" /><rect  x="383.33" y="356.02" width="3" height="43.982808022922654" /><rect  x="385.29" y="356.92" width="3" height="43.075453677172845" /><rect  x="387.25" y="356.26" width="3" height="43.7440305635148" /><rect  x="389.22" y="355.25" width="3" height="44.74689589302767" /><rect  x="391.18" y="356.73" width="3" height="43.26647564469914" /><rect  x="393.14" y="359.93" width="3" height="40.06685768863417" /><rect  x="395.10" y="360.46" width="3" height="39.54154727793696" /><rect  x="397.06" y="362.27" width="3" height="37.72683858643745" /><rect  x="399.02" y="363.75" width="3" height="36.24641833810887" /><rect  x="400.98" y="362.51" width="3" height="37.488061127029596" /><rect  x="402.94" y="365.23" width="3" height="34.76599808978034" /><rect  x="404.90" y="363.71" width="3" height="36.29417382999043" /><rect  x="406.86" y="368.39" width="3" height="31.61413562559693" /><rect  x="408.82" y="366.09" width="3" height="33.90639923591215" /><rect  x="410.78" y="366.33" width="3" height="33.66762177650429" /><rect  x="412.75" y="368.00" width="3" height="31.996179560649466" /><rect  x="414.71" y="370.25" width="3" height="29.751671442215866" /><rect  x="416.67" y="367.67" width="3" height="32.33046800382044" /><rect  x="418.63" y="369.01" width="3" height="30.993314231136594" /><rect  x="420.59" y="368.67" width="3" height="31.32760267430757" /><rect  x="422.55" y="369.39" width="3" height="30.611270296084058" /><rect  x="424.51" y="371.92" width="3" height="28.08022922636104" /><rect  x="426.47" y="373.69" width="3" height="26.313276026743097" /><rect  x="428.43" y="373.59" width="3" height="26.408787010506217" /><rect  x="430.39" y="371.97" width="3" height="28.03247373447948" /><rect  x="432.35" y="373.59" width="3" height="26.408787010506217" /><rect  x="434.31" y="371.49" width="3" height="28.510028653295137" /><rect  x="436.27" y="372.11" width="3" height="27.889207258834745" /><rect  x="438.24" y="372.92" width="3" height="27.077363896848112" /><rect  x="440.20" y="375.74" width="3" height="24.259789875835736" /><rect  x="442.16" y="376.22" width="3" height="23.78223495702008" /><rect  x="444.12" y="373.97" width="3" height="26.02674307545368" /><rect  x="446.08" y="377.60" width="3" height="22.397325692454615" /><rect  x="448.04" y="376.79" width="3" height="23.209169054441247" /><rect  x="450.00" y="378.32" width="3" height="21.68099331423116" /><rect  x="451.96" y="376.31" width="3" height="23.686723973256903" /><rect  x="453.92" y="377.22" width="3" height="22.77936962750715" /><rect  x="455.88" y="378.75" width="3" height="21.251193887297063" /><rect  x="457.84" y="378.51" width="3" height="21.489971346704863" /><rect  x="459.80" y="377.17" width="3" height="22.82712511938871" /><rect  x="461.76" y="380.66" width="3" height="19.340974212034382" /><rect  x="463.73" y="378.37" width="3" height="21.633237822349543" /><rect  x="465.69" y="379.08" width="3" height="20.916905444126087" /><rect  x="467.65" y="380.18" width="3" height="19.818529130850038" /><rect  x="469.61" y="378.65" width="3" height="21.346704871060183" /><rect  x="471.57" y="381.18" width="3" height="18.815663801337166" /><rect  x="473.53" y="380.95" width="3" height="19.054441260744966" /><rect  x="475.49" y="379.27" width="3" height="20.72588347659979" /><rect  x="477.45" y="379.56" width="3" height="20.43935052531043" /><rect  x="479.41" y="379.70" width="3" height="20.296084049665694" /><rect  x="481.37" y="380.47" width="3" height="19.53199617956068" /><rect  x="483.33" y="380.85" width="3" height="19.149952244508142" /><rect  x="485.29" y="382.00" width="3" height="18.003820439350534" /><rect  x="487.25" y="379.80" width="3" height="20.200573065902574" /><rect  x="489.22" y="381.57" width="3" height="18.43361986628463" /><rect  x="491.18" y="380.13" width="3" height="19.866284622731598" /><rect  x="493.14" y="381.33" width="3" height="18.67239732569243" /><rect  x="495.10" y="381.09" width="3" height="18.911174785100286" /><rect  x="497.06" y="379.75" width="3" height="20.248328557784134" /><rect  x="499.02" y="381.38" width="3" height="18.62464183381087" /><rect  x="500.98" y="380.80" width="3" height="19.197707736389702" /><rect  x="502.94" y="380.42" width="3" height="19.57975167144224" /><rect  x="504.90" y="381.04" width="3" height="18.958930276981846" /><rect  x="506.86" y="381.71" width="3" height="18.290353390639893" /><rect  x="508.82" y="379.61" width="3" height="20.39159503342887" /><rect  x="510.78" y="380.56" width="3" height="19.436485195797502" /><rect  x="512.75" y="379.56" width="3" height="20.43935052531043" /><rect  x="514.71" y="379.56" width="3" height="20.43935052531043" /><rect  x="516.67" y="379.99" width="3" height="20.009551098376335" /><rect  x="518.63" y="379.89" width="3" height="20.105062082139455" /><rect  x="520.59" y="379.75" width="3" height="20.248328557784134" /><rect  x="522.55" y="379.23" width="3" height="20.77363896848135" /><rect  x="524.51" y="376.55" width="3" height="23.447946513849104" /><rect  x="526.47" y="378.51" width="3" height="21.489971346704863" /><rect  x="528.43" y="379.04" width="3" height="20.964660936007647" /><rect  x="530.39" y="377.70" width="3" height="22.301814708691495" /><rect  x="532.35" y="376.07" width="3" height="23.92550143266476" /><rect  x="534.31" y="374.93" width="3" height="25.07163323782237" /><rect  x="536.27" y="372.59" width="3" height="27.41165234001909" /><rect  x="538.24" y="372.11" width="3" height="27.889207258834745" /><rect  x="540.20" y="372.06" width="3" height="27.936962750716305" /><rect  x="542.16" y="372.49" width="3" height="27.50716332378221" /><rect  x="544.12" y="370.58" width="3" height="29.41738299904489" /><rect  x="546.08" y="371.44" width="3" height="28.557784145176697" /><rect  x="548.04" y="371.73" width="3" height="28.27125119388728" /><rect  x="550.00" y="368.96" width="3" height="31.041069723018154" /><rect  x="551.96" y="370.34" width="3" height="29.656160458452746" /><rect  x="553.92" y="370.20" width="3" height="29.799426934097426" /><rect  x="555.88" y="369.82" width="3" height="30.181470869149962" /><rect  x="557.84" y="368.39" width="3" height="31.61413562559693" /><rect  x="559.80" y="366.67" width="3" height="33.333333333333314" /><rect  x="561.76" y="369.34" width="3" height="30.659025787965618" /><rect  x="563.73" y="367.86" width="3" height="32.1394460362942" /><rect  x="565.69" y="367.72" width="3" height="32.28271251193888" /><rect  x="567.65" y="364.52" width="3" height="35.482330468003795" /><rect  x="569.61" y="363.66" width="3" height="36.34192932187199" /><rect  x="571.57" y="364.57" width="3" height="35.434574976122235" /><rect  x="573.53" y="363.09" width="3" height="36.91499522445082" /><rect  x="575.49" y="360.84" width="3" height="39.15950334288442" /><rect  x="577.45" y="361.27" width="3" height="38.729703915950324" /><rect  x="579.41" y="361.17" width="3" height="38.825214899713444" /><rect  x="581.37" y="358.55" width="3" height="41.45176695319964" /><rect  x="583.33" y="358.21" width="3" height="41.78605539637056" /><rect  x="585.29" y="357.31" width="3" height="42.693409742120366" /><rect  x="587.25" y="357.78" width="3" height="42.21585482330465" /><rect  x="589.22" y="356.45" width="3" height="43.55300859598856" /><rect  x="591.18" y="356.21" width="3" height="43.79178605539636" /><rect  x="593.14" y="353.72" width="3" height="46.275071633237815" /><rect  x="595.10" y="356.30" width="3" height="43.69627507163324" /><rect  x="597.06" y="352.91" width="3" height="47.08691499522445" /><rect  x="599.02" y="351.24" width="3" height="48.75835721107927" /><rect  x="600.98" y="353.49" width="3" height="46.51384909264567" /><rect  x="602.94" y="350.05" width="3" height="49.95224450811844" /><rect  x="604.90" y="352.91" width="3" height="47.08691499522445" /><rect  x="606.86" y="350.57" width="3" height="49.42693409742117" /><rect  x="608.82" y="351.34" width="3" height="48.66284622731615" /><rect  x="610.78" y="349.24" width="3" height="50.76408787010507" /><rect  x="612.75" y="350.57" width="3" height="49.42693409742117" /><rect  x="614.71" y="348.90" width="3" height="51.09837631327605" /><rect  x="616.67" y="350.05" width="3" height="49.95224450811844" /><rect  x="618.63" y="349.19" width="3" height="50.81184336198663" /><rect  x="620.59" y="349.67" width="3" height="50.334288443170976" /><rect  x="622.55" y="350.43" width="3" height="49.570200573065904" /><rect  x="624.51" y="350.62" width="3" height="49.379178605539664" /><rect  x="626.47" y="353.68" width="3" height="46.322827125119375" /><rect  x="628.43" y="347.42" width="3" height="52.57879656160458" /><rect  x="630.39" y="349.19" width="3" height="50.81184336198663" /><rect  x="632.35" y="349.09" width="3" height="50.90735434574975" /><rect  x="634.31" y="354.82" width="3" height="45.17669531996182" /><rect  x="636.27" y="362.66" width="3" height="37.344794651384916" /><rect  x="638.24" y="360.03" width="3" height="39.97134670487105" /><rect  x="640.20" y="362.56" width="3" height="37.440305635148036" /><rect  x="642.16" y="356.06" width="3" height="43.93505253104104" /><rect  x="644.12" y="372.11" width="3" height="27.889207258834745" /><rect  x="646.08" y="378.61" width="3" height="21.394460362941743" /><rect  x="648.04" y="362.75" width="3" height="37.249283667621796" /></g><text  class="poloto_labels poloto_text poloto_title" x="400" y="37.5" >Probability Mass Function</text><text  class="poloto_labels poloto_text poloto_xname" x="400" y="481.25" >Brightness Level</text><text  class="poloto_labels poloto_text poloto_yname" transform="rotate(-90,37.5,250)" x="37.5" y="250" >Probability</text><text  class="poloto_tick_labels poloto_text" dominant-baseline="middle" text-anchor="start" x="440.00000000000006" y="70" ></text><line  class="poloto_axis_lines" stroke="black" x1="150" x2="150" y1="400" y2="405" /><text  class="poloto_tick_labels poloto_text" dominant-baseline="start" text-anchor="middle" x="150" y="430" >0</text><line  class="poloto_axis_lines" stroke="black" x1="199.01960784313724" x2="199.01960784313724" y1="400" y2="405" /><text  class="poloto_tick_labels poloto_text" dominant-baseline="start" text-anchor="middle" x="199.01960784313724" y="430" >25</text><line  class="poloto_axis_lines" stroke="black" x1="248.0392156862745" x2="248.0392156862745" y1="400" y2="405" /><text  class="poloto_tick_labels poloto_text" dominant-baseline="start" text-anchor="middle" x="248.0392156862745" y="430" >50</text><line  class="poloto_axis_lines" stroke="black" x1="297.05882352941177" x2="297.05882352941177" y1="400" y2="405" /><text  class="poloto_tick_labels poloto_text" dominant-baseline="start" text-anchor="middle" x="297.05882352941177" y="430" >75</text><line  class="poloto_axis_lines" stroke="black" x1="346.078431372549" x2="346.078431372549" y1="400" y2="405" /><text  class="poloto_tick_labels poloto_text" dominant-baseline="start" text-anchor="middle" x="346.078431372549" y="430" >100</text><line  class="poloto_axis_lines" stroke="black" x1="395.0980392156863" x2="395.0980392156863" y1="400" y2="405" /><text  class="poloto_tick_labels poloto_text" dominant-baseline="start" text-anchor="middle" x="395.0980392156863" y="430" >125</text><line  class="poloto_axis_lines" stroke="black" x1="444.11764705882354" x2="444.11764705882354" y1="400" y2="405" /><text  class="poloto_tick_labels poloto_text" dominant-baseline="start" text-anchor="middle" x="444.11764705882354" y="430" >150</text><line  class="poloto_axis_lines" stroke="black" x1="493.1372549019608" x2="493.1372549019608" y1="400" y2="405" /><text  class="poloto_tick_labels poloto_text" dominant-baseline="start" text-anchor="middle" x="493.1372549019608" y="430" >175</text><line  class="poloto_axis_lines" stroke="black" x1="542.156862745098" x2="542.156862745098" y1="400" y2="405" /><text  class="poloto_tick_labels poloto_text" dominant-baseline="start" text-anchor="middle" x="542.156862745098" y="430" >200</text><line  class="poloto_axis_lines" stroke="black" x1="591.1764705882352" x2="591.1764705882352" y1="400" y2="405" /><text  class="poloto_tick_labels poloto_text" dominant-baseline="start" text-anchor="middle" x="591.1764705882352" y="430" >225</text><line  class="poloto_axis_lines" stroke="black" x1="640.1960784313726" x2="640.1960784313726" y1="400" y2="405" /><text  class="poloto_tick_labels poloto_text" dominant-baseline="start" text-anchor="middle" x="640.1960784313726" y="430" >250</text><text  class="poloto_tick_labels poloto_text" dominant-baseline="middle" text-anchor="start" x="150" y="70" ></text><line  class="poloto_axis_lines" stroke="black" x1="150" x2="144" y1="400" y2="400" /><text  class="poloto_tick_labels poloto_text" dominant-baseline="middle" text-anchor="end" x="135" y="400" >0e0</text><line  class="poloto_axis_lines" stroke="black" x1="150" x2="144" y1="314.04011461318055" y2="314.04011461318055" /><text  class="poloto_tick_labels poloto_text" dominant-baseline="middle" text-anchor="end" x="135" y="314.04011461318055" >0.005</text><line  class="poloto_axis_lines" stroke="black" x1="150" x2="144" y1="228.08022922636104" y2="228.08022922636104" /><text  class="poloto_tick_labels poloto_text" dominant-baseline="middle" text-anchor="end" x="135" y="228.08022922636104" >0.010</text><line  class="poloto_axis_lines" stroke="black" x1="150" x2="144" y1="142.1203438395416" y2="142.1203438395416" /><text  class="poloto_tick_labels poloto_text" dominant-baseline="middle" text-anchor="end" x="135" y="142.1203438395416" >0.015</text><path  stroke="black" fill="none" class="poloto_axis_lines" d=" M 150 400 L 650 400" /><path  stroke="black" fill="none" class="poloto_axis_lines" style="stroke-dasharray:8.595988538681947;stroke-dashoffset:-0;" d=" M 150 400 L 150 100" /></svg>